<svg width="20" height="20" fill="none" xmlns="http://www.w3.org/2000/svg"><path d="M18.293 19.707a1 1 0 0 0 1.414-1.414l-1.414 1.414ZM8 15v1-1ZM1 8H0h1Zm7-7v1-1Zm11.707 17.293-6-6-1.414 1.414 6 6 1.414-1.414ZM14 8a6 6 0 0 1-.457 2.296l1.848.766C15.793 10.09 16 9.05 16 8h-2Zm-.457 2.296a6 6 0 0 1-1.3 1.947l1.414 1.414a8 8 0 0 0 1.734-2.595l-1.848-.766Zm-1.3 1.947a6 6 0 0 1-1.947 1.3l.766 1.848a8 8 0 0 0 2.595-1.734l-1.414-1.414Zm-1.947 1.3A6 6 0 0 1 8 14v2c1.05 0 2.09-.207 3.062-.609l-.766-1.848ZM8 14a6 6 0 0 1-2.296-.457l-.765 1.848c.97.402 2.01.609 3.061.609v-2Zm-2.296-.457a6 6 0 0 1-1.947-1.3l-1.414 1.414A8 8 0 0 0 4.94 15.39l.765-1.848Zm-1.947-1.3a5.999 5.999 0 0 1-1.3-1.947l-1.848.766a8 8 0 0 0 1.734 2.595l1.414-1.414Zm-1.3-1.947A6 6 0 0 1 2 8H0a8 8 0 0 0 .609 3.062l1.848-.766ZM2 8a6 6 0 0 1 1.757-4.243L2.343 2.343A8 8 0 0 0 0 8h2Zm1.757-4.243A6 6 0 0 1 8 2V0a8 8 0 0 0-5.657 2.343l1.414 1.414ZM8 2a6 6 0 0 1 4.243 1.757l1.414-1.414A8 8 0 0 0 8 0v2Zm4.243 1.757A6 6 0 0 1 14 8h2a8 8 0 0 0-2.343-5.657l-1.414 1.414Z" fill="#9CA3AF"/></svg>